<svg width="15" height="13" viewBox="0 0 15 13" fill="none" xmlns="http://www.w3.org/2000/svg">
<path d="M12.6562 8.11835C12.9141 8.11835 13.1484 7.95429 13.2188 7.69648L14.3203 2.82148C14.3906 2.46992 14.1328 2.11835 13.7578 2.11835H4.57031L4.35938 1.0871C4.28906 0.829292 4.05469 0.618355 3.79688 0.618355H1.40625C1.07812 0.618355 0.84375 0.876167 0.84375 1.18085V1.55585C0.84375 1.88398 1.07812 2.11835 1.40625 2.11835H3.02344L4.6875 10.1809C4.26562 10.4152 3.98438 10.8605 4.03125 11.3996C4.05469 12.0559 4.59375 12.5949 5.27344 12.6184C6.02344 12.6652 6.65625 12.0559 6.65625 11.3059C6.65625 10.9543 6.49219 10.6262 6.25781 10.3684H11.1562C10.9219 10.6262 10.7578 10.9777 10.7812 11.3527C10.7812 12.0559 11.3672 12.6184 12.0703 12.6184C12.7969 12.6418 13.4062 12.0559 13.4062 11.3059C13.4062 10.7902 13.1016 10.3449 12.6562 10.134L12.7734 9.57148C12.8672 9.21992 12.5859 8.86835 12.2344 8.86835H5.95312L5.78906 8.11835H12.6562ZM10.2891 5.11835C10.5234 5.11835 10.6641 5.42304 10.4766 5.61054L8.90625 7.18085C8.78906 7.29804 8.625 7.29804 8.50781 7.18085L6.9375 5.61054C6.75 5.42304 6.89062 5.11835 7.125 5.11835H8.15625V3.7121C8.15625 3.57148 8.27344 3.43085 8.4375 3.43085H9C9.14062 3.43085 9.28125 3.57148 9.28125 3.7121V5.11835H10.2891Z" fill="white"/>
</svg>
